<svg width="72" height="19" viewBox="0 0 72 19" fill="none" xmlns="http://www.w3.org/2000/svg">
<g clip-path="url(#clip0_4088_901)">
<g clip-path="url(#clip1_4088_901)">
<path d="M21.5279 14.299C21.4257 14.469 21.1186 14.4801 20.8569 14.3228C20.7228 14.2423 20.6191 14.1313 20.5655 14.0105C20.5163 13.9009 20.5155 13.7973 20.5625 13.719C20.6162 13.6296 20.7272 13.5841 20.8584 13.5841C20.9762 13.5841 21.1104 13.6206 21.2342 13.6952C21.4958 13.8524 21.6308 14.129 21.5286 14.299H21.5279ZM36.67 9.31846C36.67 14.4563 32.4894 18.6369 27.3515 18.6369H9.31846C4.18063 18.6369 0 14.457 0 9.31846C0 4.17989 4.18063 0 9.31846 0H27.3515C32.4901 0 36.67 4.18063 36.67 9.31846ZM17.9585 13.9919C18.1054 13.8137 17.427 13.312 17.2884 13.1278C17.0066 12.8222 17.0051 12.3824 16.815 12.0253C16.3498 10.9473 15.8153 9.87757 15.0676 8.9651C14.2774 7.96691 13.3023 7.14092 12.4457 6.20386C11.8098 5.55007 11.6399 4.61897 11.0785 3.91599C10.3047 2.77317 7.85807 2.46156 7.4995 4.07552C7.50099 4.12621 7.48533 4.15827 7.44135 4.19032C7.24305 4.3342 7.06637 4.49895 6.91802 4.69799C6.55498 5.20343 6.49907 6.06073 6.95232 6.51472C6.96723 6.27542 6.97543 6.04954 7.16478 5.87808C7.51515 6.17926 8.04444 6.28511 8.45072 6.06073C9.34828 7.3422 9.12464 9.11494 9.83731 10.4956C10.0341 10.8221 10.2324 11.1553 10.4851 11.4416C10.6901 11.7606 11.3983 12.1371 11.4401 12.4323C11.4475 12.9392 11.3879 13.4931 11.7204 13.9173C11.8769 14.2349 11.4923 14.5539 11.1822 14.5144C10.7796 14.5696 10.2883 14.2438 9.93571 14.4444C9.81122 14.5793 9.56745 14.4302 9.4601 14.6173C9.42283 14.7142 9.22155 14.8506 9.34157 14.9438C9.47501 14.8424 9.59876 14.7366 9.77842 14.797C9.75158 14.9431 9.86713 14.964 9.95882 15.0064C9.95584 15.1056 9.89769 15.207 9.97373 15.2912C10.0624 15.2018 10.1154 15.075 10.2563 15.0378C10.7244 15.6617 11.2008 14.4063 12.2139 14.9714C12.0081 14.9617 11.8255 14.9871 11.6868 15.1563C11.6525 15.1943 11.6235 15.239 11.6839 15.2882C12.2303 14.9356 12.2273 15.409 12.5822 15.2636C12.855 15.1212 13.1264 14.9431 13.4506 14.9938C13.1353 15.0847 13.1226 15.3382 12.9377 15.5521C12.9064 15.5849 12.8915 15.6222 12.9281 15.6766C13.5826 15.6215 13.6363 15.4038 14.1648 15.1369C14.5592 14.8961 14.952 15.4798 15.2935 15.1473C15.3687 15.075 15.4716 15.0996 15.5648 15.0899C15.4455 14.454 14.1342 15.2062 14.1551 14.3534C14.5771 14.0664 14.4801 13.517 14.5085 13.0734C14.9938 13.3425 15.5335 13.4991 16.0091 13.7563C16.2492 14.1439 16.6256 14.6561 17.1273 14.6225C17.1407 14.5838 17.1527 14.5495 17.1668 14.51C17.3189 14.5361 17.5142 14.6367 17.5977 14.4444C17.8251 14.6822 18.1591 14.6702 18.4565 14.6091C18.6764 14.4302 18.0428 14.1752 17.9578 13.9911L17.9585 13.9919ZM24.761 10.9868L23.7636 9.64051C22.8928 10.6365 22.3114 11.1218 22.3009 11.1307C22.2957 11.1359 21.7403 11.6764 21.2342 12.1401C20.7377 12.5948 20.3455 12.9549 20.1458 13.3485C20.0906 13.4573 19.9706 13.8584 20.1391 14.2595C20.2688 14.5696 20.5334 14.7903 20.9263 14.9155C21.0441 14.9528 21.1566 14.9692 21.264 14.9692C21.9714 14.9692 22.4359 14.2595 22.4388 14.2535C22.4448 14.2453 23.0464 13.3858 23.7792 12.3004C24.023 11.9396 24.3018 11.5579 24.761 10.9861V10.9868ZM29.4508 14.0873C29.4508 13.889 29.3785 13.6974 29.2473 13.549L29.1235 13.4089C28.3758 12.5613 26.4562 10.3852 25.7093 9.53987C24.7714 8.47831 23.7226 7.12527 23.6353 7.01195L23.5094 6.75104V6.29182C23.5094 6.12335 23.4758 5.9586 23.4109 5.80354L23.1441 5.16988C23.1403 5.16094 23.1388 5.1505 23.1403 5.14081L23.1508 5.05284C23.1523 5.03868 23.159 5.026 23.1702 5.01631C23.3781 4.83293 24.152 4.23804 25.3499 4.28798C25.5065 4.29469 25.5341 4.20896 25.5385 4.17243C25.5602 3.9965 25.1583 3.78926 24.7841 3.71247C24.2697 3.60736 22.9025 3.32855 21.8089 4.04645L21.8007 4.05241C21.094 4.64283 20.526 5.09384 20.52 5.09832L20.5073 5.11099C20.4991 5.12068 20.2993 5.35998 20.3478 5.66488C20.3791 5.86317 20.2762 5.93399 20.2703 5.93772C20.2643 5.94145 20.1241 6.02942 19.9795 5.93027C19.8043 5.79906 19.5002 6.0242 19.4383 6.0734L18.9791 6.4685L18.9701 6.47745C18.9619 6.48714 18.7651 6.71749 19.0283 7.08725C19.2557 7.40706 19.3362 7.51366 19.5337 7.75967C19.7343 8.00866 20.0958 8.32399 20.1152 8.34039C20.1241 8.34785 20.3448 8.51483 20.649 8.28225C20.8987 8.09066 21.0992 7.91771 21.0992 7.91771C21.1156 7.90429 21.2603 7.78501 21.267 7.60908C21.2692 7.55839 21.267 7.51441 21.267 7.47415C21.2632 7.3504 21.2625 7.31387 21.3557 7.25423C21.4004 7.25423 21.5376 7.30418 21.6554 7.36382C21.668 7.37127 21.9625 7.53677 22.2301 7.52484C22.3986 7.54721 22.585 7.73879 22.6491 7.81707C22.655 7.82303 23.2246 8.4209 24.0267 9.46979C24.1795 9.66883 24.7409 10.4165 24.8944 10.6253C25.1509 10.9742 25.5393 11.502 25.9568 12.0708C26.6799 13.0555 27.4909 14.1596 27.8592 14.6561C27.9815 14.8208 28.1596 14.9326 28.3609 14.9714L28.4973 14.9975C28.5495 15.0072 28.6017 15.0124 28.6539 15.0124C28.8954 15.0124 29.1243 14.9066 29.2756 14.7187L29.2838 14.7083C29.3927 14.5703 29.4523 14.3937 29.4523 14.2118V14.0873H29.4508ZM30.0927 5.24517L29.9339 5.08639C29.8877 5.04017 29.8228 5.01259 29.7572 5.0178C29.6916 5.02079 29.6297 5.0506 29.5872 5.1013L28.5883 6.28288C28.56 6.31642 28.5197 6.3373 28.4765 6.34177L28.1209 6.37755C28.0754 6.38203 28.0299 6.36786 27.9949 6.33879L27.4268 5.85796C27.3903 5.82665 27.3687 5.78192 27.3672 5.73421L27.359 5.44943C27.3575 5.40843 27.3717 5.36818 27.3978 5.33687L28.3691 4.16647C28.4422 4.0785 28.4414 3.95103 28.3676 3.86306L28.27 3.74751C28.2059 3.67222 28.1 3.64464 28.0076 3.67967C27.778 3.76689 27.1995 3.99277 26.7813 4.2194C26.1901 4.53846 25.7793 5.04464 25.7085 5.54038C25.6563 5.90343 25.6779 6.50205 25.6958 6.82633C25.7025 6.95381 25.6742 7.08128 25.6123 7.19534C25.5363 7.33698 25.4021 7.56361 25.1979 7.83645C25.0935 7.98033 25.0279 8.03326 24.9377 8.13986L26.0365 9.43177C26.3012 9.12314 26.533 8.88906 26.735 8.66318C27.104 8.25243 27.2188 8.2487 27.526 8.23826C27.7153 8.23155 27.9748 8.22335 28.3855 8.12048C29.5067 7.84018 29.8616 6.62654 29.8765 6.57287L30.1553 5.47031C30.1754 5.39054 30.1516 5.30407 30.0934 5.24592L30.0927 5.24517ZM12.8513 12.9415C12.7305 13.4126 12.691 14.2155 12.0782 14.2386C12.0275 14.5107 12.2668 14.6128 12.4838 14.5256C12.6992 14.4265 12.8013 14.6039 12.8736 14.7806C13.2061 14.829 13.6981 14.6695 13.7168 14.2759C13.2203 13.9896 13.0667 13.4454 12.8505 12.9415H12.8513Z" fill="#1C3C3C"/>
</g>
<path d="M44.4294 15.2485L48.0614 3.72853H50.8854L54.5174 15.2485H52.5334L49.2374 4.91253H49.6694L46.4134 15.2485H44.4294ZM46.4534 12.7525V10.9525H52.5014V12.7525H46.4534ZM55.9638 15.2485V3.72853H60.7238C60.8358 3.72853 60.9798 3.73387 61.1558 3.74453C61.3318 3.74987 61.4945 3.76587 61.6438 3.79253C62.3105 3.89387 62.8598 4.1152 63.2918 4.45653C63.7291 4.79787 64.0518 5.22987 64.2598 5.75253C64.4731 6.26987 64.5798 6.84587 64.5798 7.48053C64.5798 8.10987 64.4731 8.68587 64.2598 9.20853C64.0465 9.72587 63.7211 10.1552 63.2838 10.4965C62.8518 10.8379 62.3051 11.0592 61.6438 11.1605C61.4945 11.1819 61.3291 11.1979 61.1478 11.2085C60.9718 11.2192 60.8305 11.2245 60.7238 11.2245H57.8918V15.2485H55.9638ZM57.8918 9.42453H60.6438C60.7505 9.42453 60.8705 9.4192 61.0038 9.40854C61.1371 9.39787 61.2598 9.37653 61.3718 9.34453C61.6918 9.26453 61.9425 9.1232 62.1238 8.92054C62.3105 8.71787 62.4411 8.48853 62.5158 8.23253C62.5958 7.97653 62.6358 7.72587 62.6358 7.48053C62.6358 7.2352 62.5958 6.98453 62.5158 6.72853C62.4411 6.4672 62.3105 6.2352 62.1238 6.03253C61.9425 5.82987 61.6918 5.68853 61.3718 5.60853C61.2598 5.57653 61.1371 5.55787 61.0038 5.55254C60.8705 5.54187 60.7505 5.53653 60.6438 5.53653H57.8918V9.42453ZM66.3426 15.2485V3.72853H68.2706V15.2485H66.3426Z" fill="#1C3C3C"/>
</g>
<defs>
<clipPath id="clip0_4088_901">
<rect width="71.9864" height="18.6369" fill="white"/>
</clipPath>
<clipPath id="clip1_4088_901">
<rect width="36.67" height="18.6369" fill="white"/>
</clipPath>
</defs>
</svg>
