<svg width="72" height="19" viewBox="0 0 72 19" fill="none" xmlns="http://www.w3.org/2000/svg">
<g clip-path="url(#clip0_4088_916)">
<g clip-path="url(#clip1_4088_916)">
<path d="M21.5279 14.662C21.4257 14.832 21.1186 14.8432 20.8569 14.6859C20.7228 14.6054 20.6191 14.4943 20.5655 14.3735C20.5163 14.2639 20.5155 14.1603 20.5625 14.082C20.6162 13.9926 20.7272 13.9471 20.8584 13.9471C20.9762 13.9471 21.1104 13.9836 21.2342 14.0582C21.4958 14.2155 21.6308 14.4921 21.5286 14.662H21.5279ZM36.67 9.6815C36.67 14.8193 32.4894 19 27.3515 19H9.31846C4.18063 19 0 14.8201 0 9.6815C0 4.54292 4.18063 0.363037 9.31846 0.363037H27.3515C32.4901 0.363037 36.67 4.54367 36.67 9.6815ZM17.9585 14.3549C18.1054 14.1767 17.427 13.675 17.2884 13.4909C17.0066 13.1852 17.0051 12.7454 16.815 12.3883C16.3498 11.3104 15.8153 10.2406 15.0676 9.32814C14.2774 8.32995 13.3023 7.50396 12.4457 6.56689C11.8098 5.91311 11.6399 4.98201 11.0785 4.27903C10.3047 3.13621 7.85807 2.8246 7.4995 4.43856C7.50099 4.48925 7.48533 4.52131 7.44135 4.55336C7.24305 4.69724 7.06637 4.86199 6.91802 5.06103C6.55498 5.56646 6.49907 6.42376 6.95232 6.87776C6.96723 6.63846 6.97543 6.41258 7.16478 6.24112C7.51515 6.54229 8.04444 6.64815 8.45072 6.42376C9.34828 7.70524 9.12464 9.47798 9.83731 10.8586C10.0341 11.1851 10.2324 11.5184 10.4851 11.8046C10.6901 12.1237 11.3983 12.5001 11.4401 12.7954C11.4475 13.3023 11.3879 13.8562 11.7204 14.2803C11.8769 14.5979 11.4923 14.917 11.1822 14.8775C10.7796 14.9326 10.2883 14.6069 9.93571 14.8074C9.81122 14.9423 9.56745 14.7932 9.4601 14.9803C9.42283 15.0773 9.22155 15.2137 9.34157 15.3069C9.47501 15.2055 9.59876 15.0996 9.77842 15.16C9.75158 15.3061 9.86713 15.327 9.95882 15.3695C9.95584 15.4686 9.89769 15.57 9.97373 15.6543C10.0624 15.5648 10.1154 15.4381 10.2563 15.4008C10.7244 16.0248 11.2008 14.7694 12.2139 15.3344C12.0081 15.3248 11.8255 15.3501 11.6868 15.5193C11.6525 15.5573 11.6235 15.6021 11.6839 15.6513C12.2303 15.2987 12.2273 15.772 12.5822 15.6267C12.855 15.4843 13.1264 15.3061 13.4506 15.3568C13.1353 15.4478 13.1226 15.7012 12.9377 15.9152C12.9064 15.948 12.8915 15.9852 12.9281 16.0397C13.5826 15.9845 13.6363 15.7668 14.1648 15.4999C14.5592 15.2592 14.952 15.8429 15.2935 15.5104C15.3687 15.4381 15.4716 15.4627 15.5648 15.453C15.4455 14.8171 14.1342 15.5693 14.1551 14.7164C14.5771 14.4294 14.4801 13.88 14.5085 13.4365C14.9938 13.7056 15.5335 13.8621 16.0091 14.1193C16.2492 14.507 16.6256 15.0191 17.1273 14.9856C17.1407 14.9468 17.1527 14.9125 17.1668 14.873C17.3189 14.8991 17.5142 14.9997 17.5977 14.8074C17.8251 15.0452 18.1591 15.0333 18.4565 14.9721C18.6764 14.7932 18.0428 14.5383 17.9578 14.3541L17.9585 14.3549ZM24.761 11.3499L23.7636 10.0035C22.8928 10.9995 22.3114 11.4848 22.3009 11.4937C22.2957 11.499 21.7403 12.0394 21.2342 12.5031C20.7377 12.9579 20.3455 13.3179 20.1458 13.7115C20.0906 13.8204 19.9706 14.2214 20.1391 14.6225C20.2688 14.9326 20.5334 15.1533 20.9263 15.2785C21.0441 15.3158 21.1566 15.3322 21.264 15.3322C21.9714 15.3322 22.4359 14.6225 22.4388 14.6166C22.4448 14.6084 23.0464 13.7488 23.7792 12.6634C24.023 12.3026 24.3018 11.9209 24.761 11.3491V11.3499ZM29.4508 14.4503C29.4508 14.252 29.3785 14.0604 29.2473 13.9121L29.1235 13.7719C28.3758 12.9243 26.4562 10.7483 25.7093 9.9029C24.7714 8.84134 23.7226 7.4883 23.6353 7.37499L23.5094 7.11407V6.65486C23.5094 6.48638 23.4758 6.32163 23.4109 6.16657L23.1441 5.53292C23.1403 5.52397 23.1388 5.51354 23.1403 5.50384L23.1508 5.41588C23.1523 5.40171 23.159 5.38904 23.1702 5.37935C23.3781 5.19596 24.152 4.60107 25.3499 4.65102C25.5065 4.65773 25.5341 4.572 25.5385 4.53547C25.5602 4.35954 25.1583 4.1523 24.7841 4.07551C24.2697 3.9704 22.9025 3.69159 21.8089 4.40948L21.8007 4.41545C21.094 5.00587 20.526 5.45688 20.52 5.46135L20.5073 5.47403C20.4991 5.48372 20.2993 5.72301 20.3478 6.02791C20.3791 6.22621 20.2762 6.29703 20.2703 6.30076C20.2643 6.30449 20.1241 6.39245 19.9795 6.2933C19.8043 6.1621 19.5002 6.38723 19.4383 6.43644L18.9791 6.83154L18.9701 6.84048C18.9619 6.85018 18.7651 7.08053 19.0283 7.45028C19.2557 7.77009 19.3362 7.8767 19.5337 8.1227C19.7343 8.37169 20.0958 8.68703 20.1152 8.70343C20.1241 8.71089 20.3448 8.87787 20.649 8.64528C20.8987 8.4537 21.0992 8.28075 21.0992 8.28075C21.1156 8.26733 21.2603 8.14805 21.267 7.97212C21.2692 7.92143 21.267 7.87744 21.267 7.83719C21.2632 7.71344 21.2625 7.67691 21.3557 7.61727C21.4004 7.61727 21.5376 7.66722 21.6554 7.72686C21.668 7.73431 21.9625 7.89981 22.2301 7.88788C22.3986 7.91024 22.585 8.10183 22.6491 8.18011C22.655 8.18607 23.2246 8.78394 24.0267 9.83283C24.1795 10.0319 24.7409 10.7796 24.8944 10.9883C25.1509 11.3372 25.5393 11.865 25.9568 12.4338C26.6799 13.4186 27.4909 14.5226 27.8592 15.0191C27.9815 15.1839 28.1596 15.2957 28.3609 15.3344L28.4973 15.3605C28.5495 15.3702 28.6017 15.3754 28.6539 15.3754C28.8954 15.3754 29.1243 15.2696 29.2756 15.0817L29.2838 15.0713C29.3927 14.9334 29.4523 14.7567 29.4523 14.5748V14.4503H29.4508ZM30.0927 5.60821L29.9339 5.44942C29.8877 5.40321 29.8228 5.37562 29.7572 5.38084C29.6916 5.38382 29.6297 5.41364 29.5872 5.46433L28.5883 6.64591C28.56 6.67946 28.5197 6.70033 28.4765 6.70481L28.1209 6.74059C28.0754 6.74506 28.0299 6.7309 27.9949 6.70183L27.4268 6.22099C27.3903 6.18968 27.3687 6.14495 27.3672 6.09724L27.359 5.81247C27.3575 5.77147 27.3717 5.73121 27.3978 5.6999L28.3691 4.52951C28.4422 4.44154 28.4414 4.31406 28.3676 4.2261L28.27 4.11055C28.2059 4.03526 28.1 4.00767 28.0076 4.04271C27.778 4.12993 27.1995 4.35581 26.7813 4.58244C26.1901 4.9015 25.7793 5.40768 25.7085 5.90342C25.6563 6.26647 25.6779 6.86508 25.6958 7.18937C25.7025 7.31684 25.6742 7.44432 25.6123 7.55838C25.5363 7.70002 25.4021 7.92664 25.1979 8.19949C25.0935 8.34337 25.0279 8.39629 24.9377 8.5029L26.0365 9.79481C26.3012 9.48618 26.533 9.2521 26.735 9.02622C27.104 8.61546 27.2188 8.61174 27.526 8.6013C27.7153 8.59459 27.9748 8.58639 28.3855 8.48351C29.5067 8.20322 29.8616 6.98958 29.8765 6.93591L30.1553 5.83334C30.1754 5.75358 30.1516 5.6671 30.0934 5.60896L30.0927 5.60821ZM12.8513 13.3045C12.7305 13.7757 12.691 14.5785 12.0782 14.6016C12.0275 14.8737 12.2668 14.9759 12.4838 14.8887C12.6992 14.7895 12.8013 14.9669 12.8736 15.1436C13.2061 15.1921 13.6981 15.0325 13.7168 14.6389C13.2203 14.3527 13.0667 13.8085 12.8505 13.3045H12.8513Z" fill="#F4F3FF"/>
</g>
<path d="M44.4294 15.6116L48.0614 4.09157H50.8854L54.5174 15.6116H52.5334L49.2374 5.27557H49.6694L46.4134 15.6116H44.4294ZM46.4534 13.1156V11.3156H52.5014V13.1156H46.4534ZM55.9638 15.6116V4.09157H60.7238C60.8358 4.09157 60.9798 4.09691 61.1558 4.10757C61.3318 4.11291 61.4945 4.12891 61.6438 4.15557C62.3105 4.2569 62.8598 4.47824 63.2918 4.81957C63.7291 5.1609 64.0518 5.59291 64.2598 6.11557C64.4731 6.63291 64.5798 7.20891 64.5798 7.84357C64.5798 8.47291 64.4731 9.04891 64.2598 9.57157C64.0465 10.0889 63.7211 10.5182 63.2838 10.8596C62.8518 11.2009 62.3051 11.4222 61.6438 11.5236C61.4945 11.5449 61.3291 11.5609 61.1478 11.5716C60.9718 11.5822 60.8305 11.5876 60.7238 11.5876H57.8918V15.6116H55.9638ZM57.8918 9.78757H60.6438C60.7505 9.78757 60.8705 9.78224 61.0038 9.77157C61.1371 9.76091 61.2598 9.73957 61.3718 9.70757C61.6918 9.62757 61.9425 9.48624 62.1238 9.28357C62.3105 9.08091 62.4411 8.85157 62.5158 8.59557C62.5958 8.33957 62.6358 8.08891 62.6358 7.84357C62.6358 7.59824 62.5958 7.34757 62.5158 7.09157C62.4411 6.83024 62.3105 6.59824 62.1238 6.39557C61.9425 6.19291 61.6918 6.05157 61.3718 5.97157C61.2598 5.93957 61.1371 5.92091 61.0038 5.91557C60.8705 5.90491 60.7505 5.89957 60.6438 5.89957H57.8918V9.78757ZM66.3426 15.6116V4.09157H68.2706V15.6116H66.3426Z" fill="#F4F3FF"/>
</g>
<defs>
<clipPath id="clip0_4088_916">
<rect width="71.9864" height="18.6369" fill="white" transform="translate(0 0.363037)"/>
</clipPath>
<clipPath id="clip1_4088_916">
<rect width="36.67" height="18.6369" fill="white" transform="translate(0 0.363037)"/>
</clipPath>
</defs>
</svg>
